<svg width="142" height="32" viewBox="0 0 142 32" fill="none" xmlns="http://www.w3.org/2000/svg">
<path d="M49.932 18.316L48.312 13.528C48.192 13.224 48.064 12.868 47.928 12.46C47.792 12.044 47.656 11.596 47.52 11.116C47.4 11.604 47.272 12.056 47.136 12.472C47 12.888 46.872 13.248 46.752 13.552L45.144 18.316H49.932ZM56.376 25H53.232C52.88 25 52.596 24.92 52.38 24.76C52.164 24.592 52 24.38 51.888 24.124L50.856 21.076H44.208L43.176 24.124C43.088 24.348 42.928 24.552 42.696 24.736C42.472 24.912 42.192 25 41.856 25H38.688L45.456 7.516H49.608L56.376 25ZM61.8105 14.596H62.4585C63.0585 14.596 63.4905 14.408 63.7545 14.032L67.6905 8.32C67.9225 8.016 68.1705 7.808 68.4345 7.696C68.7065 7.576 69.0425 7.516 69.4425 7.516H72.9705L67.7865 14.584C67.4185 15.072 67.0225 15.424 66.5985 15.64C66.9025 15.752 67.1785 15.908 67.4265 16.108C67.6745 16.308 67.9065 16.568 68.1225 16.888L73.4025 25H69.7785C69.5465 25 69.3465 24.984 69.1785 24.952C69.0185 24.92 68.8785 24.872 68.7585 24.808C68.6385 24.744 68.5345 24.668 68.4465 24.58C68.3585 24.484 68.2745 24.376 68.1945 24.256L64.2345 18.172C64.0905 17.948 63.9065 17.792 63.6825 17.704C63.4665 17.608 63.1705 17.56 62.7945 17.56H61.8105V25H57.7545V7.516H61.8105V14.596ZM83.9398 18.316L82.3198 13.528C82.1998 13.224 82.0718 12.868 81.9358 12.46C81.7998 12.044 81.6638 11.596 81.5278 11.116C81.4078 11.604 81.2798 12.056 81.1438 12.472C81.0078 12.888 80.8798 13.248 80.7598 13.552L79.1518 18.316H83.9398ZM90.3838 25H87.2398C86.8878 25 86.6038 24.92 86.3878 24.76C86.1718 24.592 86.0078 24.38 85.8958 24.124L84.8638 21.076H78.2158L77.1838 24.124C77.0958 24.348 76.9358 24.552 76.7038 24.736C76.4798 24.912 76.1998 25 75.8638 25H72.6958L79.4638 7.516H83.6158L90.3838 25Z" fill="#1F33D8"/>
<path d="M90.8263 23.116C90.8263 22.828 90.8783 22.56 90.9823 22.312C91.0943 22.064 91.2423 21.848 91.4263 21.664C91.6183 21.48 91.8423 21.336 92.0983 21.232C92.3543 21.12 92.6343 21.064 92.9383 21.064C93.2343 21.064 93.5103 21.12 93.7663 21.232C94.0223 21.336 94.2463 21.48 94.4383 21.664C94.6303 21.848 94.7783 22.064 94.8823 22.312C94.9943 22.56 95.0503 22.828 95.0503 23.116C95.0503 23.404 94.9943 23.676 94.8823 23.932C94.7783 24.18 94.6303 24.396 94.4383 24.58C94.2463 24.764 94.0223 24.908 93.7663 25.012C93.5103 25.116 93.2343 25.168 92.9383 25.168C92.6343 25.168 92.3543 25.116 92.0983 25.012C91.8423 24.908 91.6183 24.764 91.4263 24.58C91.2423 24.396 91.0943 24.18 90.9823 23.932C90.8783 23.676 90.8263 23.404 90.8263 23.116ZM106.217 15.508C106.105 15.644 105.997 15.752 105.893 15.832C105.789 15.912 105.641 15.952 105.449 15.952C105.265 15.952 105.097 15.908 104.945 15.82C104.801 15.732 104.637 15.636 104.453 15.532C104.269 15.42 104.053 15.32 103.805 15.232C103.557 15.144 103.249 15.1 102.881 15.1C102.425 15.1 102.029 15.184 101.693 15.352C101.365 15.52 101.093 15.76 100.877 16.072C100.661 16.384 100.501 16.768 100.397 17.224C100.293 17.672 100.241 18.18 100.241 18.748C100.241 19.94 100.469 20.856 100.925 21.496C101.389 22.136 102.025 22.456 102.833 22.456C103.265 22.456 103.605 22.404 103.853 22.3C104.109 22.188 104.325 22.068 104.501 21.94C104.677 21.804 104.837 21.68 104.981 21.568C105.133 21.456 105.321 21.4 105.545 21.4C105.841 21.4 106.065 21.508 106.217 21.724L107.297 23.056C106.913 23.496 106.509 23.856 106.085 24.136C105.661 24.408 105.225 24.624 104.777 24.784C104.337 24.936 103.893 25.04 103.445 25.096C102.997 25.16 102.561 25.192 102.137 25.192C101.377 25.192 100.649 25.048 99.9525 24.76C99.2645 24.472 98.6565 24.056 98.1285 23.512C97.6085 22.96 97.1925 22.284 96.8805 21.484C96.5765 20.684 96.4245 19.772 96.4245 18.748C96.4245 17.852 96.5565 17.016 96.8205 16.24C97.0925 15.456 97.4885 14.78 98.0085 14.212C98.5365 13.636 99.1845 13.184 99.9525 12.856C100.729 12.528 101.625 12.364 102.641 12.364C103.617 12.364 104.473 12.52 105.209 12.832C105.945 13.144 106.609 13.6 107.201 14.2L106.217 15.508ZM114.269 12.364C115.213 12.364 116.073 12.512 116.849 12.808C117.625 13.104 118.289 13.528 118.841 14.08C119.401 14.632 119.833 15.304 120.137 16.096C120.449 16.88 120.605 17.764 120.605 18.748C120.605 19.74 120.449 20.636 120.137 21.436C119.833 22.228 119.401 22.904 118.841 23.464C118.289 24.016 117.625 24.444 116.849 24.748C116.073 25.044 115.213 25.192 114.269 25.192C113.317 25.192 112.449 25.044 111.665 24.748C110.889 24.444 110.217 24.016 109.649 23.464C109.089 22.904 108.653 22.228 108.341 21.436C108.037 20.636 107.885 19.74 107.885 18.748C107.885 17.764 108.037 16.88 108.341 16.096C108.653 15.304 109.089 14.632 109.649 14.08C110.217 13.528 110.889 13.104 111.665 12.808C112.449 12.512 113.317 12.364 114.269 12.364ZM114.269 22.432C115.125 22.432 115.753 22.132 116.153 21.532C116.561 20.924 116.765 20.004 116.765 18.772C116.765 17.54 116.561 16.624 116.153 16.024C115.753 15.424 115.125 15.124 114.269 15.124C113.389 15.124 112.745 15.424 112.337 16.024C111.929 16.624 111.725 17.54 111.725 18.772C111.725 20.004 111.929 20.924 112.337 21.532C112.745 22.132 113.389 22.432 114.269 22.432ZM126.283 12.556V25H122.563V12.556H126.283ZM126.667 9.148C126.667 9.444 126.607 9.724 126.487 9.988C126.367 10.244 126.203 10.472 125.995 10.672C125.787 10.864 125.543 11.02 125.263 11.14C124.991 11.252 124.699 11.308 124.387 11.308C124.083 11.308 123.799 11.252 123.535 11.14C123.271 11.02 123.035 10.864 122.827 10.672C122.627 10.472 122.467 10.244 122.347 9.988C122.235 9.724 122.179 9.444 122.179 9.148C122.179 8.844 122.235 8.56 122.347 8.296C122.467 8.032 122.627 7.8 122.827 7.6C123.035 7.4 123.271 7.244 123.535 7.132C123.799 7.02 124.083 6.964 124.387 6.964C124.699 6.964 124.991 7.02 125.263 7.132C125.543 7.244 125.787 7.4 125.995 7.6C126.203 7.8 126.367 8.032 126.487 8.296C126.607 8.56 126.667 8.844 126.667 9.148ZM132.309 13.9C132.549 13.676 132.797 13.468 133.053 13.276C133.309 13.084 133.581 12.924 133.869 12.796C134.165 12.66 134.481 12.556 134.817 12.484C135.161 12.404 135.533 12.364 135.933 12.364C136.613 12.364 137.213 12.484 137.733 12.724C138.261 12.956 138.705 13.284 139.065 13.708C139.425 14.124 139.697 14.624 139.881 15.208C140.065 15.784 140.157 16.412 140.157 17.092V25H136.437V17.092C136.437 16.484 136.297 16.012 136.017 15.676C135.737 15.332 135.325 15.16 134.781 15.16C134.373 15.16 133.989 15.248 133.629 15.424C133.277 15.592 132.933 15.824 132.597 16.12V25H128.877V12.556H131.181C131.645 12.556 131.949 12.764 132.093 13.18L132.309 13.9Z" fill="#0E133A"/>
<circle cx="16" cy="16" r="16" fill="#1F33D8"/>
<circle cx="16" cy="16" r="12" fill="#FFF5D7"/>
<path d="M8 16L10.3431 10.3431L16 8L21.6569 10.3431L24 16L21.6569 21.6569L16 24L10.3431 21.6569L8 16Z" fill="#FFCD37"/>
</svg>
